<?xml version="1.0" encoding="UTF-8" standalone="no"?>
<!-- Created with Inkscape (http://www.inkscape.org/) -->

<svg
   xmlns:dc="http://purl.org/dc/elements/1.1/"
   xmlns:cc="http://creativecommons.org/ns#"
   xmlns:rdf="http://www.w3.org/1999/02/22-rdf-syntax-ns#"
   xmlns:svg="http://www.w3.org/2000/svg"
   xmlns="http://www.w3.org/2000/svg"
   xmlns:sodipodi="http://sodipodi.sourceforge.net/DTD/sodipodi-0.dtd"
   xmlns:inkscape="http://www.inkscape.org/namespaces/inkscape"
   width="117.46903mm"
   height="73.854088mm"
   viewBox="0 0 416.22885 261.68771"
   id="svg2"
   version="1.1"
   inkscape:version="0.91 r13725"
   sodipodi:docname="eclipse-logo.svg">
  <defs
     id="defs4">
    <filter
       style="color-interpolation-filters:sRGB"
       inkscape:label="Blur"
       id="filter4399">
      <feGaussianBlur
         stdDeviation="2 2"
         result="blur"
         id="feGaussianBlur4401" />
    </filter>
    <filter
       style="color-interpolation-filters:sRGB"
       inkscape:label="Blur"
       id="filter4403">
      <feGaussianBlur
         stdDeviation="2 2"
         result="blur"
         id="feGaussianBlur4405" />
    </filter>
    <filter
       style="color-interpolation-filters:sRGB"
       inkscape:label="Blur"
       id="filter4407">
      <feGaussianBlur
         stdDeviation="2 2"
         result="blur"
         id="feGaussianBlur4409" />
    </filter>
  </defs>
  <sodipodi:namedview
     id="base"
     pagecolor="#ffffff"
     bordercolor="#666666"
     borderopacity="1.0"
     inkscape:pageopacity="0.0"
     inkscape:pageshadow="2"
     inkscape:zoom="0.70910507"
     inkscape:cx="1.8321457"
     inkscape:cy="36.162049"
     inkscape:document-units="px"
     inkscape:current-layer="layer1"
     showgrid="false"
     inkscape:window-width="1600"
     inkscape:window-height="1177"
     inkscape:window-x="-8"
     inkscape:window-y="-8"
     inkscape:window-maximized="1"
     fit-margin-top="0"
     fit-margin-left="0"
     fit-margin-right="0"
     fit-margin-bottom="0" />
  <metadata
     id="metadata7">
    <rdf:RDF>
      <cc:Work
         rdf:about="">
        <dc:format>image/svg+xml</dc:format>
        <dc:type
           rdf:resource="http://purl.org/dc/dcmitype/StillImage" />
        <dc:title></dc:title>
      </cc:Work>
    </rdf:RDF>
  </metadata>
  <g
     inkscape:label="Layer 1"
     inkscape:groupmode="layer"
     id="layer1"
     transform="translate(-778.76175,370.06766)">
    <g
       id="g4256" />
    <rect
       style="fill:#ffffff;fill-opacity:1;stroke:none;stroke-width:3.87800002;stroke-miterlimit:4;stroke-dasharray:none;stroke-opacity:1"
       id="rect4434"
       width="571.59332"
       height="571.59332"
       x="-141.84805"
       y="-547.90973" />
    <g
       id="g4229">
      <g
         transform="translate(214.20583,-6.8545865)"
         id="g4977">
        <circle
           style="fill:#aaccff;fill-opacity:1;stroke:none;stroke-width:3.87800002;stroke-miterlimit:4;stroke-dasharray:none;stroke-opacity:1"
           id="path4658"
           cx="695.39978"
           cy="-232.36922"
           r="130.84386" />
        <circle
           style="fill:#ffff00;fill-opacity:1;stroke:none;stroke-width:3.87800002;stroke-miterlimit:4;stroke-dasharray:none;stroke-opacity:1"
           id="path4656"
           cx="695.39978"
           cy="-232.36922"
           r="71.075676" />
        <circle
           style="fill:#000000;fill-opacity:1;stroke:none;stroke-width:3.87800002;stroke-miterlimit:4;stroke-dasharray:none;stroke-opacity:1"
           id="path4654"
           cx="761.07452"
           cy="-232.36922"
           r="62.998901" />
      </g>
      <g
         id="text4960"
         style="font-style:normal;font-variant:normal;font-weight:normal;font-stretch:normal;font-size:40px;line-height:125%;font-family:sans-serif;-inkscape-font-specification:'sans-serif, Normal';text-align:start;letter-spacing:0px;word-spacing:0px;writing-mode:lr-tb;text-anchor:start;fill:#000000;fill-opacity:1;stroke:none;stroke-width:1px;stroke-linecap:butt;stroke-linejoin:miter;stroke-opacity:1">
        <path
           id="path4203"
           style="fill:#ffffff"
           d="m 937.15857,-255.09895 -10.39063,0 0,25.64453 -3.86718,0 0,-25.64453 -10.39063,0 0,-3.4375 24.64844,0 0,3.4375 z"
           inkscape:connector-curvature="0" />
        <path
           id="path4205"
           style="fill:#ffffff"
           d="m 955.10779,-240.35286 q 0,5.33203 -2.73438,8.41797 -2.73437,3.08594 -7.32422,3.08594 -4.6289,0 -7.36328,-3.08594 -2.71484,-3.08594 -2.71484,-8.41797 0,-5.33203 2.71484,-8.41797 2.73438,-3.10547 7.36328,-3.10547 4.58985,0 7.32422,3.10547 2.73438,3.08594 2.73438,8.41797 z m -3.78906,0 q 0,-4.23828 -1.66016,-6.28906 -1.66016,-2.07031 -4.60938,-2.07031 -2.98828,0 -4.64843,2.07031 -1.64063,2.05078 -1.64063,6.28906 0,4.10156 1.66016,6.23047 1.66015,2.10937 4.6289,2.10937 2.92969,0 4.58985,-2.08984 1.67969,-2.10937 1.67969,-6.25 z"
           inkscape:connector-curvature="0" />
        <path
           id="path4207"
           style="fill:#ffffff"
           d="m 974.42419,-247.26692 -0.19531,0 q -0.82031,-0.19531 -1.60156,-0.27344 -0.76172,-0.0977 -1.81641,-0.0977 -1.69922,0 -3.28125,0.76172 -1.58203,0.74219 -3.04687,1.9336 l 0,15.48828 -3.67188,0 0,-21.81641 3.67188,0 0,3.22266 q 2.1875,-1.75781 3.84765,-2.48047 1.67969,-0.74219 3.41797,-0.74219 0.95703,0 1.38672,0.0586 0.42969,0.0391 1.28906,0.17578 l 0,3.76953 z"
           inkscape:connector-curvature="0" />
        <path
           id="path4209"
           style="fill:#ffffff"
           d="m 991.53357,-247.26692 -0.19531,0 q -0.82032,-0.19531 -1.60157,-0.27344 -0.76171,-0.0977 -1.8164,-0.0977 -1.69922,0 -3.28125,0.76172 -1.58203,0.74219 -3.04688,1.9336 l 0,15.48828 -3.67187,0 0,-21.81641 3.67187,0 0,3.22266 q 2.1875,-1.75781 3.84766,-2.48047 1.67969,-0.74219 3.41797,-0.74219 0.95703,0 1.38672,0.0586 0.42968,0.0391 1.28906,0.17578 l 0,3.76953 z"
           inkscape:connector-curvature="0" />
        <path
           id="path4211"
           style="fill:#ffffff"
           d="m 1011.2797,-229.45442 -3.6524,0 0,-2.32422 q -0.4883,0.33203 -1.3281,0.9375 -0.8203,0.58594 -1.6016,0.9375 -0.9179,0.44922 -2.1093,0.74219 -1.1914,0.3125 -2.79301,0.3125 -2.94922,0 -5,-1.95313 -2.05078,-1.95312 -2.05078,-4.98047 0,-2.48047 1.05468,-4.0039 1.07422,-1.54297 3.04688,-2.42188 1.99219,-0.8789 4.78513,-1.1914 2.793,-0.3125 5.9961,-0.46875 l 0,-0.56641 q 0,-1.25 -0.4492,-2.07031 -0.4297,-0.82032 -1.25,-1.28907 -0.7812,-0.44921 -1.875,-0.60546 -1.0937,-0.15625 -2.2852,-0.15625 -1.4453,0 -3.22261,0.39062 -1.77735,0.37109 -3.67188,1.09375 l -0.19531,0 0,-3.73047 q 1.07422,-0.29297 3.10547,-0.64453 2.03125,-0.35156 4.00393,-0.35156 2.3047,0 4.0039,0.39062 1.7187,0.3711 2.9687,1.28907 1.2305,0.89843 1.875,2.32421 0.6446,1.42579 0.6446,3.53516 l 0,14.80469 z m -3.6524,-5.3711 0,-6.07421 q -1.6797,0.0977 -3.9648,0.29296 -2.2656,0.19532 -3.5938,0.56641 -1.58201,0.44922 -2.55857,1.40625 -0.97656,0.9375 -0.97656,2.59766 0,1.875 1.13281,2.83203 1.13281,0.9375 3.45702,0.9375 1.9336,0 3.5352,-0.74219 1.6015,-0.76172 2.9687,-1.81641 z"
           inkscape:connector-curvature="0" />
        <path
           id="path4213"
           style="fill:#ffffff"
           d="m 1036.6312,-229.45442 -3.6718,0 0,-12.42188 q 0,-1.5039 -0.1758,-2.8125 -0.1758,-1.32812 -0.6446,-2.07031 -0.4882,-0.82031 -1.4062,-1.21094 -0.918,-0.41015 -2.3828,-0.41015 -1.5039,0 -3.1446,0.74218 -1.6406,0.74219 -3.1445,1.89454 l 0,16.28906 -3.6719,0 0,-21.81641 3.6719,0 0,2.42188 q 1.7188,-1.42578 3.5547,-2.22657 1.8359,-0.80078 3.7695,-0.80078 3.5352,0 5.3907,2.12891 1.8554,2.12891 1.8554,6.13281 l 0,14.16016 z"
           inkscape:connector-curvature="0" />
        <path
           id="path4215"
           style="fill:#2ca02c"
           d="m 1067.3734,-229.45442 -5.0195,0 -11.5039,-12.94922 -2.8906,3.08594 0,9.86328 -3.8672,0 0,-29.08203 3.8672,0 0,15.17578 14.121,-15.17578 4.6875,0 -12.9882,13.67187 13.5937,15.41016 z"
           inkscape:connector-curvature="0" />
        <path
           id="path4217"
           style="fill:#2ca02c"
           d="m 1087.2172,-229.45442 -3.6524,0 0,-2.32422 q -0.4883,0.33203 -1.3281,0.9375 -0.8203,0.58594 -1.6016,0.9375 -0.9179,0.44922 -2.1093,0.74219 -1.1914,0.3125 -2.793,0.3125 -2.9492,0 -5,-1.95313 -2.0508,-1.95312 -2.0508,-4.98047 0,-2.48047 1.0547,-4.0039 1.0742,-1.54297 3.0469,-2.42188 1.9922,-0.8789 4.7851,-1.1914 2.793,-0.3125 5.9961,-0.46875 l 0,-0.56641 q 0,-1.25 -0.4492,-2.07031 -0.4297,-0.82032 -1.25,-1.28907 -0.7812,-0.44921 -1.875,-0.60546 -1.0937,-0.15625 -2.2852,-0.15625 -1.4453,0 -3.2226,0.39062 -1.7774,0.37109 -3.6719,1.09375 l -0.1953,0 0,-3.73047 q 1.0742,-0.29297 3.1055,-0.64453 2.0312,-0.35156 4.0039,-0.35156 2.3047,0 4.0039,0.39062 1.7187,0.3711 2.9687,1.28907 1.2305,0.89843 1.875,2.32421 0.6446,1.42579 0.6446,3.53516 l 0,14.80469 z m -3.6524,-5.3711 0,-6.07421 q -1.6797,0.0977 -3.9648,0.29296 -2.2656,0.19532 -3.5938,0.56641 -1.582,0.44922 -2.5586,1.40625 -0.9765,0.9375 -0.9765,2.59766 0,1.875 1.1328,2.83203 1.1328,0.9375 3.457,0.9375 1.9336,0 3.5352,-0.74219 1.6015,-0.76172 2.9687,-1.81641 z"
           inkscape:connector-curvature="0" />
        <path
           id="path4219"
           style="fill:#2ca02c"
           d="m 1112.5687,-229.45442 -3.6718,0 0,-12.42188 q 0,-1.5039 -0.1758,-2.8125 -0.1758,-1.32812 -0.6446,-2.07031 -0.4882,-0.82031 -1.4062,-1.21094 -0.918,-0.41015 -2.3828,-0.41015 -1.5039,0 -3.1446,0.74218 -1.6406,0.74219 -3.1445,1.89454 l 0,16.28906 -3.6719,0 0,-30.39063 3.6719,0 0,10.9961 q 1.7188,-1.42578 3.5547,-2.22657 1.8359,-0.80078 3.7695,-0.80078 3.5352,0 5.3907,2.12891 1.8554,2.12891 1.8554,6.13281 l 0,14.16016 z"
           inkscape:connector-curvature="0" />
        <path
           id="path4221"
           style="fill:#2ca02c"
           d="m 1123.35,-229.45442 -3.6719,0 0,-30.39063 3.6719,0 0,30.39063 z"
           inkscape:connector-curvature="0" />
        <path
           id="path4223"
           style="fill:#2ca02c"
           d="m 1148.7601,-239.98177 -16.0742,0 q 0,2.01172 0.6055,3.51563 0.6055,1.48437 1.6601,2.44141 1.0157,0.9375 2.4024,1.40625 1.4062,0.46875 3.0859,0.46875 2.2266,0 4.4727,-0.87891 2.2656,-0.89844 3.2226,-1.75781 l 0.1953,0 0,4.0039 q -1.8554,0.78125 -3.789,1.3086 -1.9336,0.52734 -4.0625,0.52734 -5.4297,0 -8.4766,-2.92969 -3.0469,-2.94922 -3.0469,-8.35937 0,-5.35156 2.9102,-8.4961 2.9297,-3.14453 7.6953,-3.14453 4.4141,0 6.7969,2.57813 2.4023,2.57812 2.4023,7.32422 l 0,1.99218 z m -3.5742,-2.8125 q -0.019,-2.89062 -1.4648,-4.47265 -1.4258,-1.58203 -4.3555,-1.58203 -2.9492,0 -4.707,1.73828 -1.7383,1.73828 -1.9727,4.3164 l 12.5,0 z"
           inkscape:connector-curvature="0" />
        <path
           id="path4225"
           style="fill:#2ca02c"
           d="m 1170.4594,-230.82161 q -1.836,0.87891 -3.4961,1.36719 -1.6407,0.48828 -3.4961,0.48828 -2.3633,0 -4.336,-0.68359 -1.9726,-0.70313 -3.3789,-2.10938 -1.4258,-1.40625 -2.207,-3.55469 -0.7813,-2.14843 -0.7813,-5.01953 0,-5.35156 2.9297,-8.39844 2.9492,-3.04687 7.7735,-3.04687 1.875,0 3.6718,0.52734 1.8164,0.52735 3.3204,1.28907 l 0,4.08203 -0.1954,0 q -1.6796,-1.3086 -3.4765,-2.01172 -1.7774,-0.70313 -3.4766,-0.70313 -3.125,0 -4.9414,2.10938 -1.7969,2.08984 -1.7969,6.15234 0,3.94531 1.7578,6.07422 1.7774,2.10938 4.9805,2.10938 1.1133,0 2.2656,-0.29297 1.1524,-0.29297 2.0704,-0.76172 0.8007,-0.41016 1.5039,-0.85938 0.7031,-0.46875 1.1132,-0.80078 l 0.1954,0 0,4.04297 z"
           inkscape:connector-curvature="0" />
        <path
           id="path4227"
           style="fill:#2ca02c"
           d="m 1194.9906,-229.45442 -4.8437,0 -8.75,-9.55078 -2.3829,2.26562 0,7.28516 -3.6718,0 0,-30.39063 3.6718,0 0,19.49219 10.6055,-10.91797 4.6289,0 -10.1367,10.07813 10.8789,11.73828 z"
           inkscape:connector-curvature="0" />
      </g>
    </g>
  </g>
</svg>
