<?xml version="1.0" encoding="UTF-8" standalone="no"?>
<svg
   width="353.12161"
   height="353.12201"
   viewBox="0 0 353.12161 353.122"
   version="1.1"
   xml:space="preserve"
   style="clip-rule:evenodd;fill-rule:evenodd;stroke-linejoin:round;stroke-miterlimit:2"
   id="svg14"
   sodipodi:docname="favicon-logo.svg"
   inkscape:version="1.2.2 (732a01da63, 2022-12-09)"
   inkscape:export-filename="C:\Users\tkahl\OneDrive\Desktop\logo-black-stroke.png"
   inkscape:export-xdpi="29.357798"
   inkscape:export-ydpi="29.357798"
   xmlns:inkscape="http://www.inkscape.org/namespaces/inkscape"
   xmlns:sodipodi="http://sodipodi.sourceforge.net/DTD/sodipodi-0.dtd"
   xmlns="http://www.w3.org/2000/svg"
   xmlns:svg="http://www.w3.org/2000/svg"><defs
   id="defs18" /><sodipodi:namedview
   id="namedview16"
   pagecolor="#ffffff"
   bordercolor="#000000"
   borderopacity="0.25"
   inkscape:showpageshadow="2"
   inkscape:pageopacity="0.0"
   inkscape:pagecheckerboard="0"
   inkscape:deskcolor="#d1d1d1"
   showgrid="false"
   inkscape:zoom="1.3837216"
   inkscape:cx="324.84857"
   inkscape:cy="205.60494"
   inkscape:window-width="1440"
   inkscape:window-height="890"
   inkscape:window-x="-6"
   inkscape:window-y="-6"
   inkscape:window-maximized="1"
   inkscape:current-layer="svg14" />
    
<rect
   style="fill:#000000;stroke:none;stroke-width:4.09482"
   id="rect2373"
   width="353.12161"
   height="353.12201"
   x="0"
   y="0" /><g
   id="g2319"
   transform="translate(13.241897,53.087398)"
   style="fill:#ffffff;stroke:#ffffff"><g
     transform="translate(-827.155,-1136.76)"
     id="g12"
     style="fill:#ffffff;stroke:#ffffff">
        <g
   transform="matrix(3.73134,0,0,3.73134,-2242.07,-3799.65)"
   id="g10"
   style="fill:#ffffff;stroke:#ffffff">
            <g
   transform="translate(9,-3)"
   id="g4"
   style="fill:#ffffff;stroke:#ffffff">
                <path
   d="m 838.314,1391.3 c -4.7,0 -8.187,-0.73 -10.462,-2.18 -2.275,-1.45 -3.413,-4.12 -3.413,-8.02 0,-1.8 0.05,-3.45 0.15,-4.95 0.1,-1.5 0.213,-2.98 0.338,-4.43 0.125,-1.45 0.187,-3 0.187,-4.65 0,-0.95 -0.287,-1.86 -0.862,-2.74 -0.575,-0.87 -1.638,-1.58 -3.188,-2.13 -1.55,-0.55 -3.775,-0.85 -6.675,-0.9 v -4.5 c 2.9,-0.05 5.125,-0.35 6.675,-0.9 1.55,-0.55 2.613,-1.28 3.188,-2.18 0.575,-0.9 0.862,-1.8 0.862,-2.7 0,-1.6 -0.062,-3.14 -0.187,-4.61 -0.125,-1.48 -0.238,-2.99 -0.338,-4.54 -0.1,-1.55 -0.15,-3.17 -0.15,-4.87 0,-3.95 1.138,-6.64 3.413,-8.07 2.275,-1.42 5.762,-2.13 10.462,-2.13 h 4.875 v 4.12 h -3.675 c -2.4,0 -4.237,0.21 -5.512,0.64 -1.275,0.42 -2.15,1.1 -2.625,2.02 -0.475,0.93 -0.713,2.19 -0.713,3.79 0,2.1 0.075,4.25 0.225,6.45 0.15,2.2 0.225,4.45 0.225,6.75 0,2.5 -0.512,4.4 -1.537,5.7 -1.025,1.3 -2.863,2.18 -5.513,2.63 v 0.3 c 2.65,0.45 4.488,1.32 5.513,2.62 1.025,1.3 1.537,3.2 1.537,5.7 0,2.45 -0.075,4.71 -0.225,6.79 -0.15,2.07 -0.225,4.21 -0.225,6.41 0,1.55 0.238,2.8 0.713,3.75 0.475,0.95 1.35,1.64 2.625,2.06 1.275,0.43 3.112,0.64 5.512,0.64 h 3.675 v 4.13 z"
   style="fill:#ffffff;fill-rule:nonzero;stroke:#ffffff;stroke-width:1.67px"
   id="path2" />
            </g>
            <g
   transform="matrix(0.268,0,0,0.268,600.606,1018.31)"
   id="g8"
   style="fill:#ffffff;stroke:#ffffff">
                <path
   d="m 1025.09,1294.71 v 57.51 h -27.981 v -159.8 H 938.06 v -23.51 h 213.61 v 23.51 h -42.92 l -38.16,46.54 63.81,112.6 h -31.34 l -49.82,-91.42 z m 52.16,-102.29 h -52.16 v 64.02 z"
   style="fill:#ffffff;stroke:#ffffff;stroke-width:6.25px"
   id="path6" />
            </g>
        </g>
    </g></g></svg>
