<?xml version="1.0" encoding="UTF-8" standalone="no"?>
<!-- Created with Inkscape (http://www.inkscape.org/) -->

<svg
   xmlns:dc="http://purl.org/dc/elements/1.1/"
   xmlns:cc="http://creativecommons.org/ns#"
   xmlns:rdf="http://www.w3.org/1999/02/22-rdf-syntax-ns#"
   xmlns:svg="http://www.w3.org/2000/svg"
   xmlns="http://www.w3.org/2000/svg"
   xmlns:sodipodi="http://sodipodi.sourceforge.net/DTD/sodipodi-0.dtd"
   xmlns:inkscape="http://www.inkscape.org/namespaces/inkscape"
   width="162.15869mm"
   height="73.854088mm"
   viewBox="0 0 574.57804 261.68771"
   id="svg2"
   version="1.1"
   inkscape:version="0.91 r13725"
   sodipodi:docname="logo-text.svg">
  <defs
     id="defs4">
    <filter
       style="color-interpolation-filters:sRGB"
       inkscape:label="Blur"
       id="filter4399">
      <feGaussianBlur
         stdDeviation="2 2"
         result="blur"
         id="feGaussianBlur4401" />
    </filter>
    <filter
       style="color-interpolation-filters:sRGB"
       inkscape:label="Blur"
       id="filter4403">
      <feGaussianBlur
         stdDeviation="2 2"
         result="blur"
         id="feGaussianBlur4405" />
    </filter>
    <filter
       style="color-interpolation-filters:sRGB"
       inkscape:label="Blur"
       id="filter4407">
      <feGaussianBlur
         stdDeviation="2 2"
         result="blur"
         id="feGaussianBlur4409" />
    </filter>
  </defs>
  <sodipodi:namedview
     id="base"
     pagecolor="#ffffff"
     bordercolor="#666666"
     borderopacity="1.0"
     inkscape:pageopacity="0.0"
     inkscape:pageshadow="2"
     inkscape:zoom="0.94316065"
     inkscape:cx="172.62987"
     inkscape:cy="25.363479"
     inkscape:document-units="px"
     inkscape:current-layer="g4286"
     showgrid="false"
     inkscape:window-width="1855"
     inkscape:window-height="1056"
     inkscape:window-x="65"
     inkscape:window-y="24"
     inkscape:window-maximized="1"
     fit-margin-top="0"
     fit-margin-left="0"
     fit-margin-right="0"
     fit-margin-bottom="0" />
  <metadata
     id="metadata7">
    <rdf:RDF>
      <cc:Work
         rdf:about="">
        <dc:format>image/svg+xml</dc:format>
        <dc:type
           rdf:resource="http://purl.org/dc/dcmitype/StillImage" />
        <dc:title></dc:title>
      </cc:Work>
    </rdf:RDF>
  </metadata>
  <g
     inkscape:label="Layer 1"
     inkscape:groupmode="layer"
     id="layer1"
     transform="translate(-564.55592,363.21307)">
    <g
       id="g4256" />
    <rect
       style="fill:#ffffff;fill-opacity:1;stroke:none;stroke-width:3.87800002;stroke-miterlimit:4;stroke-dasharray:none;stroke-opacity:1"
       id="rect4434"
       width="571.59332"
       height="571.59332"
       x="-141.84805"
       y="-547.90973" />
    <g
       id="g4286">
      <g
         id="g4977">
        <circle
           style="fill:#aaccff;fill-opacity:1;stroke:none;stroke-width:3.87800002;stroke-miterlimit:4;stroke-dasharray:none;stroke-opacity:1"
           id="path4658"
           cx="695.39978"
           cy="-232.36922"
           r="130.84386" />
        <circle
           style="fill:#ffff00;fill-opacity:1;stroke:none;stroke-width:3.87800002;stroke-miterlimit:4;stroke-dasharray:none;stroke-opacity:1"
           id="path4656"
           cx="695.39978"
           cy="-232.36922"
           r="71.075676" />
        <circle
           style="fill:#000000;fill-opacity:1;stroke:none;stroke-width:3.87800002;stroke-miterlimit:4;stroke-dasharray:none;stroke-opacity:1"
           id="path4654"
           cx="761.07452"
           cy="-232.36922"
           r="62.998901" />
      </g>
      <g
         style="font-style:normal;font-variant:normal;font-weight:normal;font-stretch:normal;font-size:40px;line-height:125%;font-family:sans-serif;-inkscape-font-specification:'sans-serif, Normal';text-align:start;letter-spacing:0px;word-spacing:0px;writing-mode:lr-tb;text-anchor:start;fill:#000000;fill-opacity:1;stroke:none;stroke-width:1px;stroke-linecap:butt;stroke-linejoin:miter;stroke-opacity:1"
         id="text4960">
        <path
           d="m 709.05585,-258.96765 0,6.21094 7.40234,0 0,2.79296 -7.40234,0 0,11.875 q 0,2.67579 0.72265,3.4375 0.74219,0.76172 2.98828,0.76172 l 3.69141,0 0,3.00782 -3.69141,0 q -4.16015,0 -5.74218,-1.54297 -1.58203,-1.5625 -1.58203,-5.66407 l 0,-11.875 -2.63672,0 0,-2.79296 2.63672,0 0,-6.21094 3.61328,0 z"
           style="fill:#ffffff"
           id="path4390" />
        <path
           d="m 729.68085,-250.23718 q -2.89063,0 -4.57032,2.26562 -1.67968,2.2461 -1.67968,6.17188 0,3.92578 1.66015,6.1914 1.67969,2.2461 4.58985,2.2461 2.87109,0 4.55078,-2.26563 1.67969,-2.26562 1.67969,-6.17187 0,-3.88672 -1.67969,-6.15235 -1.67969,-2.28515 -4.55078,-2.28515 z m 0,-3.04688 q 4.6875,0 7.36328,3.04688 2.67578,3.04687 2.67578,8.4375 0,5.37109 -2.67578,8.4375 -2.67578,3.04687 -7.36328,3.04687 -4.70703,0 -7.38282,-3.04687 -2.65625,-3.06641 -2.65625,-8.4375 0,-5.39063 2.65625,-8.4375 2.67579,-3.04688 7.38282,-3.04688 z"
           style="fill:#ffffff"
           id="path4392" />
        <path
           d="m 758.33319,-249.39734 q -0.60547,-0.35156 -1.32812,-0.50781 -0.70313,-0.17578 -1.5625,-0.17578 -3.04688,0 -4.6875,1.99218 -1.6211,1.97266 -1.6211,5.6836 l 0,11.52344 -3.61328,0 0,-21.875 3.61328,0 0,3.39843 q 1.13281,-1.99218 2.94922,-2.94922 1.81641,-0.97656 4.41406,-0.97656 0.3711,0 0.82032,0.0586 0.44921,0.0391 0.99609,0.13671 l 0.0195,3.69141 z"
           style="fill:#ffffff"
           id="path4394" />
        <path
           d="m 774.11444,-249.39734 q -0.60547,-0.35156 -1.32812,-0.50781 -0.70313,-0.17578 -1.5625,-0.17578 -3.04688,0 -4.6875,1.99218 -1.6211,1.97266 -1.6211,5.6836 l 0,11.52344 -3.61328,0 0,-21.875 3.61328,0 0,3.39843 q 1.13281,-1.99218 2.94922,-2.94922 1.81641,-0.97656 4.41406,-0.97656 0.3711,0 0.82032,0.0586 0.44921,0.0391 0.99609,0.13671 l 0.0195,3.69141 z"
           style="fill:#ffffff"
           id="path4396" />
        <path
           d="m 787.86444,-241.87781 q -4.35547,0 -6.03516,0.9961 -1.67968,0.99609 -1.67968,3.39843 0,1.91407 1.25,3.04688 1.26953,1.11328 3.4375,1.11328 2.98828,0 4.78515,-2.10938 1.81641,-2.1289 1.81641,-5.64453 l 0,-0.80078 -3.57422,0 z m 7.16797,-1.48437 0,12.48047 -3.59375,0 0,-3.32032 q -1.23047,1.99219 -3.06641,2.94922 -1.83593,0.9375 -4.49218,0.9375 -3.35938,0 -5.35157,-1.875 -1.97265,-1.89453 -1.97265,-5.05859 0,-3.69141 2.46093,-5.56641 2.48047,-1.875 7.38282,-1.875 l 5.03906,0 0,-0.35156 q 0,-2.48047 -1.64063,-3.82813 -1.62109,-1.36718 -4.57031,-1.36718 -1.875,0 -3.65234,0.44922 -1.77735,0.44921 -3.41797,1.34765 l 0,-3.32031 q 1.97266,-0.76172 3.82812,-1.13281 1.85547,-0.39063 3.61329,-0.39063 4.74609,0 7.08984,2.46094 2.34375,2.46094 2.34375,7.46094 z"
           style="fill:#ffffff"
           id="path4398" />
        <path
           d="m 820.63788,-244.08484 0,13.20313 -3.59375,0 0,-13.08594 q 0,-3.10547 -1.21094,-4.64844 -1.21094,-1.54297 -3.63281,-1.54297 -2.91016,0 -4.58985,1.85547 -1.67968,1.85547 -1.67968,5.05859 l 0,12.36329 -3.61328,0 0,-21.875 3.61328,0 0,3.39843 q 1.28906,-1.97265 3.02734,-2.94922 1.75781,-0.97656 4.04297,-0.97656 3.76953,0 5.70312,2.34375 1.9336,2.32422 1.9336,6.85547 z"
           style="fill:#ffffff"
           id="path4400" />
        <path
           d="m 828.00116,-260.04187 3.94531,0 0,12.32422 13.08594,-12.32422 5.07812,0 -14.47265,13.59375 15.50781,15.56641 -5.19531,0 -14.00391,-14.04297 0,14.04297 -3.94531,0 0,-29.16016 z"
           style="fill:#00aad4"
           id="path4402" />
        <path
           d="m 863.33319,-241.87781 q -4.35547,0 -6.03516,0.9961 -1.67968,0.99609 -1.67968,3.39843 0,1.91407 1.25,3.04688 1.26953,1.11328 3.4375,1.11328 2.98828,0 4.78515,-2.10938 1.81641,-2.1289 1.81641,-5.64453 l 0,-0.80078 -3.57422,0 z m 7.16797,-1.48437 0,12.48047 -3.59375,0 0,-3.32032 q -1.23047,1.99219 -3.06641,2.94922 -1.83593,0.9375 -4.49218,0.9375 -3.35938,0 -5.35157,-1.875 -1.97265,-1.89453 -1.97265,-5.05859 0,-3.69141 2.46093,-5.56641 2.48047,-1.875 7.38282,-1.875 l 5.03906,0 0,-0.35156 q 0,-2.48047 -1.64063,-3.82813 -1.62109,-1.36718 -4.57031,-1.36718 -1.875,0 -3.65234,0.44922 -1.77735,0.44921 -3.41797,1.34765 l 0,-3.32031 q 1.97266,-0.76172 3.82812,-1.13281 1.85547,-0.39063 3.61329,-0.39063 4.74609,0 7.08984,2.46094 2.34375,2.46094 2.34375,7.46094 z"
           style="fill:#00aad4"
           id="path4404" />
        <path
           d="m 896.10663,-244.08484 0,13.20313 -3.59375,0 0,-13.08594 q 0,-3.10547 -1.21094,-4.64844 -1.21094,-1.54297 -3.63281,-1.54297 -2.91016,0 -4.58985,1.85547 -1.67968,1.85547 -1.67968,5.05859 l 0,12.36329 -3.61328,0 0,-30.39063 3.61328,0 0,11.91406 q 1.28906,-1.97265 3.02734,-2.94922 1.75781,-0.97656 4.04297,-0.97656 3.76953,0 5.70312,2.34375 1.9336,2.32422 1.9336,6.85547 z"
           style="fill:#00aad4"
           id="path4406" />
        <path
           d="m 903.31366,-261.27234 3.59375,0 0,30.39063 -3.59375,0 0,-30.39063 z"
           style="fill:#00aad4"
           id="path4408" />
        <path
           d="m 933.11835,-242.71765 0,1.75781 -16.52344,0 q 0.23437,3.71094 2.22656,5.66406 2.01172,1.9336 5.58594,1.9336 2.07031,0 4.00391,-0.50782 1.95312,-0.50781 3.86718,-1.52343 l 0,3.39843 q -1.93359,0.82032 -3.96484,1.25 -2.03125,0.42969 -4.12109,0.42969 -5.23438,0 -8.30079,-3.04687 -3.04687,-3.04688 -3.04687,-8.24219 0,-5.37109 2.89062,-8.51563 2.91016,-3.16406 7.83204,-3.16406 4.41406,0 6.97265,2.85156 2.57813,2.83204 2.57813,7.71485 z m -3.59375,-1.05469 q -0.0391,-2.94922 -1.66016,-4.70703 -1.60156,-1.75781 -4.25781,-1.75781 -3.00781,0 -4.82422,1.69922 -1.79688,1.69921 -2.07031,4.78515 l 12.8125,-0.0195 z"
           style="fill:#00aad4"
           id="path4410" />
        <path
           d="m 954.75897,-251.91687 0,3.35937 q -1.52344,-0.83984 -3.0664,-1.25 -1.52344,-0.42968 -3.08594,-0.42968 -3.4961,0 -5.42969,2.22656 -1.93359,2.20703 -1.93359,6.21094 0,4.0039 1.93359,6.23047 1.93359,2.20703 5.42969,2.20703 1.5625,0 3.08594,-0.41016 1.54296,-0.42969 3.0664,-1.26953 l 0,3.32031 q -1.5039,0.70313 -3.125,1.05469 -1.60156,0.35156 -3.41797,0.35156 -4.9414,0 -7.85156,-3.10547 -2.91016,-3.10547 -2.91016,-8.3789 0,-5.35157 2.92969,-8.41797 2.94922,-3.06641 8.06641,-3.06641 1.66015,0 3.24219,0.35156 1.58203,0.33204 3.0664,1.01563 z"
           style="fill:#00aad4"
           id="path4412" />
        <path
           d="m 960.91132,-261.27234 3.61328,0 0,17.94922 10.72265,-9.43359 4.58985,0 -11.60157,10.23437 12.08985,11.64063 -4.6875,0 -11.11328,-10.6836 0,10.6836 -3.61328,0 0,-30.39063 z"
           style="fill:#00aad4"
           id="path4414" />
        <path
           d="m 992.88397,-261.23328 q -2.61719,4.49219 -3.88672,8.88672 -1.26953,4.39453 -1.26953,8.90625 0,4.51172 1.26953,8.94531 1.28907,4.41407 3.88672,8.88672 l -3.125,0 q -2.92969,-4.58984 -4.39453,-9.02343 -1.44531,-4.4336 -1.44531,-8.8086 0,-4.35547 1.44531,-8.76953 1.44531,-4.41406 4.39453,-9.02344 l 3.125,0 z"
           style=""
           id="path4416" />
        <path
           d="m 734.36835,-210.04187 0,10.83984 -3.32032,0 0,-10.83984 3.32032,0 z"
           style="fill:#71c837"
           id="path4418" />
        <path
           d="m 753.05975,-211.27234 0,2.98828 -3.4375,0 q -1.93359,0 -2.69531,0.78125 -0.74219,0.78125 -0.74219,2.8125 l 0,1.9336 5.91797,0 0,2.79296 -5.91797,0 0,19.08204 -3.61328,0 0,-19.08204 -3.4375,0 0,-2.79296 3.4375,0 0,-1.52344 q 0,-3.65235 1.69922,-5.3125 1.69922,-1.67969 5.39063,-1.67969 l 3.39843,0 z"
           style="fill:#71c837"
           id="path4420" />
        <path
           d="m 755.67694,-189.51453 0,-13.24218 3.59375,0 0,13.10546 q 0,3.10547 1.21094,4.66797 1.21094,1.54297 3.63281,1.54297 2.91016,0 4.58984,-1.85547 1.69922,-1.85547 1.69922,-5.05859 l 0,-12.40234 3.59375,0 0,21.875 -3.59375,0 0,-3.35938 q -1.30859,1.99219 -3.04687,2.96875 -1.71875,0.95703 -4.00391,0.95703 -3.76953,0 -5.72265,-2.34375 -1.95313,-2.34375 -1.95313,-6.85547 z m 9.04297,-13.76953 0,0 z"
           style="fill:#71c837"
           id="path4422" />
        <path
           d="m 781.43866,-211.27234 3.59375,0 0,30.39063 -3.59375,0 0,-30.39063 z"
           style="fill:#71c837"
           id="path4424" />
        <path
           d="m 792.53241,-211.27234 3.59375,0 0,30.39063 -3.59375,0 0,-30.39063 z"
           style="fill:#71c837"
           id="path4426" />
        <path
           d="m 830.30585,-202.11218 0,3.39843 q -1.52344,-0.78125 -3.16407,-1.17187 -1.64062,-0.39063 -3.39843,-0.39063 -2.67578,0 -4.02344,0.82032 -1.32813,0.82031 -1.32813,2.46093 0,1.25 0.95704,1.97266 0.95703,0.70313 3.84765,1.34766 l 1.23047,0.27343 q 3.82813,0.82032 5.42969,2.32422 1.62109,1.48438 1.62109,4.16016 0,3.04687 -2.42187,4.82422 -2.40235,1.77734 -6.6211,1.77734 -1.75781,0 -3.67187,-0.35156 -1.89453,-0.33203 -4.00391,-1.01563 l 0,-3.71093 q 1.99219,1.03515 3.92578,1.5625 1.9336,0.50781 3.82813,0.50781 2.53906,0 3.90625,-0.85938 1.36719,-0.8789 1.36719,-2.46093 0,-1.46485 -0.9961,-2.2461 -0.97656,-0.78125 -4.3164,-1.5039 l -1.25,-0.29297 q -3.33985,-0.70313 -4.82422,-2.14844 -1.48438,-1.46484 -1.48438,-4.00391 0,-3.08593 2.1875,-4.76562 2.1875,-1.67969 6.21094,-1.67969 1.99219,0 3.75,0.29297 1.75781,0.29297 3.24219,0.87891 z"
           style="fill:#338000"
           id="path4428" />
        <path
           d="m 840.7746,-208.96765 0,6.21094 7.40234,0 0,2.79296 -7.40234,0 0,11.875 q 0,2.67579 0.72265,3.4375 0.74219,0.76172 2.98828,0.76172 l 3.69141,0 0,3.00782 -3.69141,0 q -4.16015,0 -5.74218,-1.54297 -1.58203,-1.5625 -1.58203,-5.66407 l 0,-11.875 -2.63672,0 0,-2.79296 2.63672,0 0,-6.21094 3.61328,0 z"
           style="fill:#338000"
           id="path4430" />
        <path
           d="m 862.86444,-191.87781 q -4.35547,0 -6.03516,0.9961 -1.67968,0.99609 -1.67968,3.39843 0,1.91407 1.25,3.04688 1.26953,1.11328 3.4375,1.11328 2.98828,0 4.78515,-2.10938 1.81641,-2.1289 1.81641,-5.64453 l 0,-0.80078 -3.57422,0 z m 7.16797,-1.48437 0,12.48047 -3.59375,0 0,-3.32032 q -1.23047,1.99219 -3.06641,2.94922 -1.83593,0.9375 -4.49218,0.9375 -3.35938,0 -5.35157,-1.875 -1.97265,-1.89453 -1.97265,-5.05859 0,-3.69141 2.46093,-5.56641 2.48047,-1.875 7.38282,-1.875 l 5.03906,0 0,-0.35156 q 0,-2.48047 -1.64063,-3.82813 -1.62109,-1.36718 -4.57031,-1.36718 -1.875,0 -3.65234,0.44922 -1.77735,0.44921 -3.41797,1.34765 l 0,-3.32031 q 1.97266,-0.76172 3.82812,-1.13281 1.85547,-0.39063 3.61329,-0.39063 4.74609,0 7.08984,2.46094 2.34375,2.46094 2.34375,7.46094 z"
           style="fill:#338000"
           id="path4432" />
        <path
           d="m 893.19647,-201.91687 0,3.35937 q -1.52344,-0.83984 -3.0664,-1.25 -1.52344,-0.42968 -3.08594,-0.42968 -3.4961,0 -5.42969,2.22656 -1.93359,2.20703 -1.93359,6.21094 0,4.0039 1.93359,6.23047 1.93359,2.20703 5.42969,2.20703 1.5625,0 3.08594,-0.41016 1.54296,-0.42969 3.0664,-1.26953 l 0,3.32031 q -1.5039,0.70313 -3.125,1.05469 -1.60156,0.35156 -3.41797,0.35156 -4.9414,0 -7.85156,-3.10547 -2.91016,-3.10547 -2.91016,-8.3789 0,-5.35157 2.92969,-8.41797 2.94922,-3.06641 8.06641,-3.06641 1.66015,0 3.24219,0.35156 1.58203,0.33204 3.0664,1.01563 z"
           style="fill:#338000"
           id="path4434" />
        <path
           d="m 899.34882,-211.27234 3.61328,0 0,17.94922 10.72265,-9.43359 4.58985,0 -11.60157,10.23437 12.08985,11.64063 -4.6875,0 -11.11328,-10.6836 0,10.6836 -3.61328,0 0,-30.39063 z"
           style="fill:#338000"
           id="path4436" />
        <path
           d="m 949.81757,-199.4364 0,-11.83594 3.59375,0 0,30.39063 -3.59375,0 0,-3.28125 q -1.13282,1.95312 -2.8711,2.91015 -1.71875,0.9375 -4.14062,0.9375 -3.96485,0 -6.46485,-3.16406 -2.48047,-3.16406 -2.48047,-8.32031 0,-5.15625 2.48047,-8.32032 2.5,-3.16406 6.46485,-3.16406 2.42187,0 4.14062,0.95703 1.73828,0.9375 2.8711,2.89063 z m -12.2461,7.63672 q 0,3.96484 1.6211,6.23047 1.64062,2.24609 4.49218,2.24609 2.85157,0 4.49219,-2.24609 1.64063,-2.26563 1.64063,-6.23047 0,-3.96485 -1.64063,-6.21094 -1.64062,-2.26563 -4.49219,-2.26563 -2.85156,0 -4.49218,2.26563 -1.6211,2.24609 -1.6211,6.21094 z"
           style="fill:#338000"
           id="path4438" />
        <path
           d="m 979.5246,-192.71765 0,1.75781 -16.52344,0 q 0.23437,3.71094 2.22656,5.66406 2.01172,1.9336 5.58594,1.9336 2.07031,0 4.00391,-0.50782 1.95312,-0.50781 3.86718,-1.52343 l 0,3.39843 q -1.93359,0.82032 -3.96484,1.25 -2.03125,0.42969 -4.12109,0.42969 -5.23438,0 -8.30079,-3.04687 -3.04687,-3.04688 -3.04687,-8.24219 0,-5.37109 2.89062,-8.51563 2.91016,-3.16406 7.83204,-3.16406 4.41406,0 6.97265,2.85156 2.57813,2.83204 2.57813,7.71485 z m -3.59375,-1.05469 q -0.0391,-2.94922 -1.66016,-4.70703 -1.60156,-1.75781 -4.25781,-1.75781 -3.00781,0 -4.82422,1.69922 -1.79688,1.69921 -2.07031,4.78515 l 12.8125,-0.0195 z"
           style="fill:#338000"
           id="path4440" />
        <path
           d="m 982.84491,-202.75671 3.80859,0 6.83594,18.35937 6.83596,-18.35937 3.8086,0 -8.20315,21.875 -4.88282,0 -8.20312,-21.875 z"
           style="fill:#338000"
           id="path4442" />
        <path
           d="m 1027.8058,-192.71765 0,1.75781 -16.5234,0 q 0.2344,3.71094 2.2266,5.66406 2.0117,1.9336 5.5859,1.9336 2.0703,0 4.0039,-0.50782 1.9531,-0.50781 3.8672,-1.52343 l 0,3.39843 q -1.9336,0.82032 -3.9648,1.25 -2.0313,0.42969 -4.1211,0.42969 -5.2344,0 -8.3008,-3.04687 -3.0469,-3.04688 -3.0469,-8.24219 0,-5.37109 2.8906,-8.51563 2.9102,-3.16406 7.8321,-3.16406 4.414,0 6.9726,2.85156 2.5781,2.83204 2.5781,7.71485 z m -3.5937,-1.05469 q -0.039,-2.94922 -1.6602,-4.70703 -1.6015,-1.75781 -4.2578,-1.75781 -3.0078,0 -4.8242,1.69922 -1.7969,1.69921 -2.0703,4.78515 l 12.8125,-0.0195 z"
           style="fill:#338000"
           id="path4444" />
        <path
           d="m 1033.7043,-211.27234 3.5937,0 0,30.39063 -3.5937,0 0,-30.39063 z"
           style="fill:#338000"
           id="path4446" />
        <path
           d="m 1053.2746,-200.23718 q -2.8906,0 -4.5703,2.26562 -1.6797,2.2461 -1.6797,6.17188 0,3.92578 1.6602,6.1914 1.6796,2.2461 4.5898,2.2461 2.8711,0 4.5508,-2.26563 1.6797,-2.26562 1.6797,-6.17187 0,-3.88672 -1.6797,-6.15235 -1.6797,-2.28515 -4.5508,-2.28515 z m 0,-3.04688 q 4.6875,0 7.3633,3.04688 2.6758,3.04687 2.6758,8.4375 0,5.37109 -2.6758,8.4375 -2.6758,3.04687 -7.3633,3.04687 -4.707,0 -7.3828,-3.04687 -2.6563,-3.06641 -2.6563,-8.4375 0,-5.39063 2.6563,-8.4375 2.6758,-3.04688 7.3828,-3.04688 z"
           style="fill:#338000"
           id="path4448" />
        <path
           d="m 1072.7277,-184.16296 0,11.60156 -3.6133,0 0,-30.19531 3.6133,0 0,3.32031 q 1.1328,-1.95313 2.8516,-2.89063 1.7383,-0.95703 4.1406,-0.95703 3.9844,0 6.4649,3.16406 2.5,3.16407 2.5,8.32032 0,5.15625 -2.5,8.32031 -2.4805,3.16406 -6.4649,3.16406 -2.4023,0 -4.1406,-0.9375 -1.7188,-0.95703 -2.8516,-2.91015 z m 12.2266,-7.63672 q 0,-3.96485 -1.6406,-6.21094 -1.6211,-2.26563 -4.4727,-2.26563 -2.8516,0 -4.4922,2.26563 -1.6211,2.24609 -1.6211,6.21094 0,3.96484 1.6211,6.23047 1.6406,2.24609 4.4922,2.24609 2.8516,0 4.4727,-2.24609 1.6406,-2.26563 1.6406,-6.23047 z"
           style="fill:#338000"
           id="path4450" />
        <path
           d="m 1113.3527,-192.71765 0,1.75781 -16.5234,0 q 0.2344,3.71094 2.2265,5.66406 2.0118,1.9336 5.586,1.9336 2.0703,0 4.0039,-0.50782 1.9531,-0.50781 3.8672,-1.52343 l 0,3.39843 q -1.9336,0.82032 -3.9649,1.25 -2.0312,0.42969 -4.1211,0.42969 -5.2343,0 -8.3007,-3.04687 -3.0469,-3.04688 -3.0469,-8.24219 0,-5.37109 2.8906,-8.51563 2.9102,-3.16406 7.832,-3.16406 4.4141,0 6.9727,2.85156 2.5781,2.83204 2.5781,7.71485 z m -3.5937,-1.05469 q -0.039,-2.94922 -1.6602,-4.70703 -1.6015,-1.75781 -4.2578,-1.75781 -3.0078,0 -4.8242,1.69922 -1.7969,1.69921 -2.0703,4.78515 l 12.8125,-0.0195 z"
           style="fill:#338000"
           id="path4452" />
        <path
           d="m 1131.9269,-199.39734 q -0.6054,-0.35156 -1.3281,-0.50781 -0.7031,-0.17578 -1.5625,-0.17578 -3.0469,0 -4.6875,1.99218 -1.6211,1.97266 -1.6211,5.6836 l 0,11.52344 -3.6133,0 0,-21.875 3.6133,0 0,3.39843 q 1.1328,-1.99218 2.9492,-2.94922 1.8164,-0.97656 4.4141,-0.97656 0.3711,0 0.8203,0.0586 0.4492,0.0391 0.9961,0.13671 l 0.019,3.69141 z"
           style="fill:#338000"
           id="path4454" />
        <path
           d="m 1139.134,-210.04187 0,10.83984 -3.3203,0 0,-10.83984 3.3203,0 z"
           style="fill:#338000"
           id="path4456" />
        <path
           d="m 704.93475,-161.23328 3.125,0 q 2.92969,4.60938 4.375,9.02344 1.46485,4.41406 1.46485,8.76953 0,4.375 -1.46485,8.8086 -1.44531,4.43359 -4.375,9.02343 l -3.125,0 q 2.59766,-4.47265 3.86719,-8.88672 1.28906,-4.43359 1.28906,-8.94531 0,-4.51172 -1.28906,-8.90625 -1.26953,-4.39453 -3.86719,-8.88672 z"
           style=""
           id="path4458" />
      </g>
    </g>
  </g>
</svg>
