<?xml version="1.0" encoding="UTF-8" standalone="no"?>
<!DOCTYPE svg PUBLIC "-//W3C//DTD SVG 1.1//EN" "http://www.w3.org/Graphics/SVG/1.1/DTD/svg11.dtd">
<svg width="100%" height="100%" viewBox="0 0 450 252" version="1.1" xmlns="http://www.w3.org/2000/svg" xmlns:xlink="http://www.w3.org/1999/xlink" xml:space="preserve" xmlns:serif="http://www.serif.com/" style="fill-rule:evenodd;clip-rule:evenodd;stroke-linejoin:round;stroke-miterlimit:2;">
    <g transform="matrix(1,0,0,1,-830.28,-1139.89)">
        <g transform="matrix(3.73134,0,0,3.73134,-2230.87,-3788.46)">
            <g transform="matrix(1,0,0,1,9,-3)">
                <path d="M838.314,1391.3C833.614,1391.3 830.127,1390.57 827.852,1389.12C825.577,1387.67 824.439,1385 824.439,1381.1C824.439,1379.3 824.489,1377.65 824.589,1376.15C824.689,1374.65 824.802,1373.17 824.927,1371.72C825.052,1370.27 825.114,1368.72 825.114,1367.07C825.114,1366.12 824.827,1365.21 824.252,1364.33C823.677,1363.46 822.614,1362.75 821.064,1362.2C819.514,1361.65 817.289,1361.35 814.389,1361.3L814.389,1356.8C817.289,1356.75 819.514,1356.45 821.064,1355.9C822.614,1355.35 823.677,1354.62 824.252,1353.72C824.827,1352.82 825.114,1351.92 825.114,1351.02C825.114,1349.42 825.052,1347.88 824.927,1346.41C824.802,1344.93 824.689,1343.42 824.589,1341.87C824.489,1340.32 824.439,1338.7 824.439,1337C824.439,1333.05 825.577,1330.36 827.852,1328.93C830.127,1327.51 833.614,1326.8 838.314,1326.8L843.189,1326.8L843.189,1330.92L839.514,1330.92C837.114,1330.92 835.277,1331.13 834.002,1331.56C832.727,1331.98 831.852,1332.66 831.377,1333.58C830.902,1334.51 830.664,1335.77 830.664,1337.37C830.664,1339.47 830.739,1341.62 830.889,1343.82C831.039,1346.02 831.114,1348.27 831.114,1350.57C831.114,1353.07 830.602,1354.97 829.577,1356.27C828.552,1357.57 826.714,1358.45 824.064,1358.9L824.064,1359.2C826.714,1359.65 828.552,1360.52 829.577,1361.82C830.602,1363.12 831.114,1365.02 831.114,1367.52C831.114,1369.97 831.039,1372.23 830.889,1374.31C830.739,1376.38 830.664,1378.52 830.664,1380.72C830.664,1382.27 830.902,1383.52 831.377,1384.47C831.852,1385.42 832.727,1386.11 834.002,1386.53C835.277,1386.96 837.114,1387.17 839.514,1387.17L843.189,1387.17L843.189,1391.3L838.314,1391.3Z" style="fill-opacity:0.5;fill-rule:nonzero;"/>
            </g>
            <path d="M869.439,1379.9L869.439,1337.07L853.614,1337.07L853.614,1330.77L910.862,1330.77L910.862,1337.07L876.939,1337.07L876.939,1379.9L869.439,1379.9Z" style="fill-opacity:0.5;fill-rule:nonzero;"/>
            <g transform="matrix(1,0,0,1,-33.2941,2.27374e-13)">
                <path d="M910.014,1364.82L910.014,1354.25L910.239,1354.25L929.289,1330.77L937.764,1330.77L922.389,1349.6L939.489,1379.9L931.089,1379.9L917.739,1355.3L910.014,1364.82Z" style="fill-opacity:0.5;fill-rule:nonzero;"/>
            </g>
            <g transform="matrix(1,0,0,1,-36,-3)">
                <path d="M948.189,1391.3L948.189,1387.17L951.864,1387.17C954.314,1387.17 956.177,1386.96 957.452,1386.53C958.727,1386.11 959.602,1385.42 960.077,1384.47C960.552,1383.52 960.789,1382.27 960.789,1380.72C960.789,1378.52 960.714,1376.38 960.564,1374.31C960.414,1372.23 960.339,1369.97 960.339,1367.52C960.339,1365.02 960.852,1363.12 961.877,1361.82C962.902,1360.52 964.714,1359.65 967.314,1359.2L967.314,1358.9C964.714,1358.45 962.902,1357.57 961.877,1356.27C960.852,1354.97 960.339,1353.07 960.339,1350.57C960.339,1348.27 960.414,1346.02 960.564,1343.82C960.714,1341.62 960.789,1339.47 960.789,1337.37C960.789,1335.77 960.552,1334.51 960.077,1333.58C959.602,1332.66 958.727,1331.98 957.452,1331.56C956.177,1331.13 954.314,1330.92 951.864,1330.92L948.189,1330.92L948.189,1326.8L953.064,1326.8C957.814,1326.8 961.314,1327.51 963.564,1328.93C965.814,1330.36 966.939,1333.05 966.939,1337C966.939,1338.7 966.889,1340.32 966.789,1341.87C966.689,1343.42 966.577,1344.93 966.452,1346.41C966.327,1347.88 966.264,1349.42 966.264,1351.02C966.264,1351.92 966.552,1352.82 967.127,1353.72C967.702,1354.62 968.764,1355.35 970.314,1355.9C971.864,1356.45 974.089,1356.75 976.989,1356.8L976.989,1361.3C974.089,1361.35 971.864,1361.65 970.314,1362.2C968.764,1362.75 967.702,1363.46 967.127,1364.33C966.552,1365.21 966.264,1366.12 966.264,1367.07C966.264,1368.72 966.327,1370.27 966.452,1371.72C966.577,1373.17 966.689,1374.65 966.789,1376.15C966.889,1377.65 966.939,1379.3 966.939,1381.1C966.939,1385 965.814,1387.67 963.564,1389.12C961.314,1390.57 957.814,1391.3 953.064,1391.3L948.189,1391.3Z" style="fill-opacity:0.5;fill-rule:nonzero;"/>
            </g>
        </g>
        <g transform="matrix(3.73134,0,0,3.73134,-2242.07,-3799.65)">
            <g transform="matrix(1,0,0,1,9,-3)">
                <path d="M838.314,1391.3C833.614,1391.3 830.127,1390.57 827.852,1389.12C825.577,1387.67 824.439,1385 824.439,1381.1C824.439,1379.3 824.489,1377.65 824.589,1376.15C824.689,1374.65 824.802,1373.17 824.927,1371.72C825.052,1370.27 825.114,1368.72 825.114,1367.07C825.114,1366.12 824.827,1365.21 824.252,1364.33C823.677,1363.46 822.614,1362.75 821.064,1362.2C819.514,1361.65 817.289,1361.35 814.389,1361.3L814.389,1356.8C817.289,1356.75 819.514,1356.45 821.064,1355.9C822.614,1355.35 823.677,1354.62 824.252,1353.72C824.827,1352.82 825.114,1351.92 825.114,1351.02C825.114,1349.42 825.052,1347.88 824.927,1346.41C824.802,1344.93 824.689,1343.42 824.589,1341.87C824.489,1340.32 824.439,1338.7 824.439,1337C824.439,1333.05 825.577,1330.36 827.852,1328.93C830.127,1327.51 833.614,1326.8 838.314,1326.8L843.189,1326.8L843.189,1330.92L839.514,1330.92C837.114,1330.92 835.277,1331.13 834.002,1331.56C832.727,1331.98 831.852,1332.66 831.377,1333.58C830.902,1334.51 830.664,1335.77 830.664,1337.37C830.664,1339.47 830.739,1341.62 830.889,1343.82C831.039,1346.02 831.114,1348.27 831.114,1350.57C831.114,1353.07 830.602,1354.97 829.577,1356.27C828.552,1357.57 826.714,1358.45 824.064,1358.9L824.064,1359.2C826.714,1359.65 828.552,1360.52 829.577,1361.82C830.602,1363.12 831.114,1365.02 831.114,1367.52C831.114,1369.97 831.039,1372.23 830.889,1374.31C830.739,1376.38 830.664,1378.52 830.664,1380.72C830.664,1382.27 830.902,1383.52 831.377,1384.47C831.852,1385.42 832.727,1386.11 834.002,1386.53C835.277,1386.96 837.114,1387.17 839.514,1387.17L843.189,1387.17L843.189,1391.3L838.314,1391.3Z" style="fill-rule:nonzero;"/>
            </g>
            <path d="M869.439,1379.9L869.439,1337.07L853.614,1337.07L853.614,1330.77L910.862,1330.77L910.862,1337.07L876.939,1337.07L876.939,1379.9L869.439,1379.9Z" style="fill-rule:nonzero;"/>
            <g transform="matrix(1,0,0,1,-33.2941,2.27374e-13)">
                <path d="M910.014,1364.82L910.014,1354.25L910.239,1354.25L929.289,1330.77L937.764,1330.77L922.389,1349.6L939.489,1379.9L931.089,1379.9L917.739,1355.3L910.014,1364.82Z" style="fill-rule:nonzero;"/>
            </g>
            <g transform="matrix(1,0,0,1,-36,-3)">
                <path d="M948.189,1391.3L948.189,1387.17L951.864,1387.17C954.314,1387.17 956.177,1386.96 957.452,1386.53C958.727,1386.11 959.602,1385.42 960.077,1384.47C960.552,1383.52 960.789,1382.27 960.789,1380.72C960.789,1378.52 960.714,1376.38 960.564,1374.31C960.414,1372.23 960.339,1369.97 960.339,1367.52C960.339,1365.02 960.852,1363.12 961.877,1361.82C962.902,1360.52 964.714,1359.65 967.314,1359.2L967.314,1358.9C964.714,1358.45 962.902,1357.57 961.877,1356.27C960.852,1354.97 960.339,1353.07 960.339,1350.57C960.339,1348.27 960.414,1346.02 960.564,1343.82C960.714,1341.62 960.789,1339.47 960.789,1337.37C960.789,1335.77 960.552,1334.51 960.077,1333.58C959.602,1332.66 958.727,1331.98 957.452,1331.56C956.177,1331.13 954.314,1330.92 951.864,1330.92L948.189,1330.92L948.189,1326.8L953.064,1326.8C957.814,1326.8 961.314,1327.51 963.564,1328.93C965.814,1330.36 966.939,1333.05 966.939,1337C966.939,1338.7 966.889,1340.32 966.789,1341.87C966.689,1343.42 966.577,1344.93 966.452,1346.41C966.327,1347.88 966.264,1349.42 966.264,1351.02C966.264,1351.92 966.552,1352.82 967.127,1353.72C967.702,1354.62 968.764,1355.35 970.314,1355.9C971.864,1356.45 974.089,1356.75 976.989,1356.8L976.989,1361.3C974.089,1361.35 971.864,1361.65 970.314,1362.2C968.764,1362.75 967.702,1363.46 967.127,1364.33C966.552,1365.21 966.264,1366.12 966.264,1367.07C966.264,1368.72 966.327,1370.27 966.452,1371.72C966.577,1373.17 966.689,1374.65 966.789,1376.15C966.889,1377.65 966.939,1379.3 966.939,1381.1C966.939,1385 965.814,1387.67 963.564,1389.12C961.314,1390.57 957.814,1391.3 953.064,1391.3L948.189,1391.3Z" style="fill-rule:nonzero;"/>
            </g>
        </g>
    </g>
</svg>
