<?xml version="1.0" encoding="UTF-8" standalone="no"?>
<svg
   width="100%"
   height="100%"
   viewBox="0 0 327 247"
   version="1.1"
   xml:space="preserve"
   style="fill-rule:evenodd;clip-rule:evenodd;stroke-linejoin:round;stroke-miterlimit:2;"
   id="svg6781"
   sodipodi:docname="logo-black-stroke.svg"
   xmlns:inkscape="http://www.inkscape.org/namespaces/inkscape"
   xmlns:sodipodi="http://sodipodi.sourceforge.net/DTD/sodipodi-0.dtd"
   xmlns="http://www.w3.org/2000/svg"
   xmlns:svg="http://www.w3.org/2000/svg"><defs
   id="defs6785" /><sodipodi:namedview
   id="namedview6783"
   pagecolor="#ffffff"
   bordercolor="#000000"
   borderopacity="0.25"
   inkscape:showpageshadow="2"
   inkscape:pageopacity="0.0"
   inkscape:pagecheckerboard="0"
   inkscape:deskcolor="#d1d1d1"
   showgrid="false" />
    <g
   transform="matrix(1,0,0,1,-827.155,-1136.76)"
   id="g6779">
        <g
   transform="matrix(3.73134,0,0,3.73134,-2242.07,-3799.65)"
   id="g6777">
            <g
   transform="matrix(1,0,0,1,9,-3)"
   id="g6771">
                <path
   d="M838.314,1391.3C833.614,1391.3 830.127,1390.57 827.852,1389.12C825.577,1387.67 824.439,1385 824.439,1381.1C824.439,1379.3 824.489,1377.65 824.589,1376.15C824.689,1374.65 824.802,1373.17 824.927,1371.72C825.052,1370.27 825.114,1368.72 825.114,1367.07C825.114,1366.12 824.827,1365.21 824.252,1364.33C823.677,1363.46 822.614,1362.75 821.064,1362.2C819.514,1361.65 817.289,1361.35 814.389,1361.3L814.389,1356.8C817.289,1356.75 819.514,1356.45 821.064,1355.9C822.614,1355.35 823.677,1354.62 824.252,1353.72C824.827,1352.82 825.114,1351.92 825.114,1351.02C825.114,1349.42 825.052,1347.88 824.927,1346.41C824.802,1344.93 824.689,1343.42 824.589,1341.87C824.489,1340.32 824.439,1338.7 824.439,1337C824.439,1333.05 825.577,1330.36 827.852,1328.93C830.127,1327.51 833.614,1326.8 838.314,1326.8L843.189,1326.8L843.189,1330.92L839.514,1330.92C837.114,1330.92 835.277,1331.13 834.002,1331.56C832.727,1331.98 831.852,1332.66 831.377,1333.58C830.902,1334.51 830.664,1335.77 830.664,1337.37C830.664,1339.47 830.739,1341.62 830.889,1343.82C831.039,1346.02 831.114,1348.27 831.114,1350.57C831.114,1353.07 830.602,1354.97 829.577,1356.27C828.552,1357.57 826.714,1358.45 824.064,1358.9L824.064,1359.2C826.714,1359.65 828.552,1360.52 829.577,1361.82C830.602,1363.12 831.114,1365.02 831.114,1367.52C831.114,1369.97 831.039,1372.23 830.889,1374.31C830.739,1376.38 830.664,1378.52 830.664,1380.72C830.664,1382.27 830.902,1383.52 831.377,1384.47C831.852,1385.42 832.727,1386.11 834.002,1386.53C835.277,1386.96 837.114,1387.17 839.514,1387.17L843.189,1387.17L843.189,1391.3L838.314,1391.3Z"
   style="fill:white;fill-rule:nonzero;stroke:black;stroke-width:1.67px;"
   id="path6769" />
            </g>
            <g
   transform="matrix(0.268,0,0,0.268,600.606,1018.31)"
   id="g6775">
                <path
   d="M1025.09,1294.71L1025.09,1352.22L997.109,1352.22L997.109,1192.42L938.06,1192.42L938.06,1168.91L1151.67,1168.91L1151.67,1192.42L1108.75,1192.42L1070.59,1238.96L1134.4,1351.56L1103.06,1351.56L1053.24,1260.14L1025.09,1294.71ZM1077.25,1192.42L1025.09,1192.42L1025.09,1256.44L1077.25,1192.42Z"
   style="fill:white;stroke:black;stroke-width:6.25px;"
   id="path6773" />
            </g>
        </g>
    </g>
<rect
   style="clip-rule:evenodd;fill:#000000;fill-rule:evenodd;stroke-width:3.18133;stroke-linejoin:round;stroke-miterlimit:2;stroke-dasharray:none"
   id="rect6384"
   width="36.94207"
   height="6.2621856"
   x="106.64746"
   y="225.16095"
   transform="rotate(-50.837444)" /></svg>
