<svg xmlns="http://www.w3.org/2000/svg" viewBox="0 0 16 16">
    <symbol id="github" viewBox="0 0 16 16">
        <path d="M8 0C3.58 0 0 3.58 0 8c0 3.54 2.29 6.53 5.47 7.59.4.07.55-.17.55-.38 0-.19-.01-.82-.01-1.49-2.01.37-2.53-.49-2.69-.94-.09-.23-.48-.94-.82-1.13-.28-.15-.68-.52-.01-.53.63-.01 1.08.58 1.23.82.72 1.21 1.87.87 2.33.66.07-.52.28-.87.51-1.07-1.78-.2-3.64-.89-3.64-3.95 0-.87.31-1.59.82-2.15-.08-.2-.36-1.02.08-2.12 0 0 .67-.21 2.2.82.64-.18 1.32-.27 2-.27.68 0 1.36.09 2 .27 1.53-1.04 2.2-.82 2.2-.82.44 1.1.16 1.92.08 2.12.51.56.82 1.27.82 2.15 0 3.07-1.87 3.75-3.65 3.95.29.25.54.73.54 1.48 0 1.07-.01 1.93-.01 2.2 0 .21.15.46.55.38A8.012 8.012 0 0 0 16 8c0-4.42-3.58-8-8-8z"/>
    </symbol>
    <symbol id="linkedin" viewBox="0 0 16 16">
        <path d="M0 1.146C0 .513.526 0 1.175 0h13.65C15.474 0 16 .513 16 1.146v13.708c0 .633-.526 1.146-1.175 1.146H1.175C.526 16 0 15.487 0 14.854V1.146zm4.943 12.248V6.169H2.542v7.225h2.401zm-1.2-8.212c.837 0 1.358-.554 1.358-1.248-.015-.709-.52-1.248-1.342-1.248-.822 0-1.359.54-1.359 1.248 0 .694.521 1.248 1.327 1.248h.016zm4.908 8.212V9.359c0-.216.016-.432.08-.586.173-.431.568-.878 1.232-.878.869 0 1.216.662 1.216 1.634v3.865h2.401V9.25c0-2.22-1.184-3.252-2.764-3.252-1.274 0-1.845.7-2.165 1.193v.025h-.016a5.54 5.54 0 0 1 .016-.025V6.169h-2.4c.03.678 0 7.225 0 7.225h2.4z"/>
    </symbol>
    <symbol id="threads" viewBox="0 0 16 16">
        <path
            style="stroke-width:1;"
            d="M 8.2173158,7.9535103e-4 C 7.6382733,0.00375524 7.009647,0.04094582 6.6633259,0.10319303 4.1671352,0.55183981 2.42395,2.0343406 1.6066085,4.4036337 1.2192146,5.5265987 1.1007983,6.3567028 1.1000087,7.9546015 c -6.495e-4,1.3206775 0.034895,1.72139 0.2324495,2.6183395 0.6728079,3.054763 2.6795709,4.953538 5.6701323,5.365058 0.5269614,0.07247 1.5556593,0.0834 2.1034392,0.02224 1.5901643,-0.17745 2.8446433,-0.715781 3.7957853,-1.628914 0.826777,-0.793737 1.294155,-1.737917 1.432331,-2.893641 C 14.537516,9.7366524 13.707195,8.2777561 12.068939,7.4576838 11.907223,7.3767357 11.769671,7.3059705 11.763248,7.3004267 11.756848,7.294827 11.731034,7.1269933 11.705996,6.9273209 11.500352,5.2872879 10.681837,4.2199447 9.330172,3.8294157 8.8290019,3.6846133 7.7053636,3.6850853 7.1701001,3.8302157 6.6907761,3.9602427 6.3018254,4.1533553 5.9324923,4.4446882 5.6405115,4.6750073 5.2610317,5.099591 5.2610317,5.1959313 c 0,0.024079 0.2535975,0.2189916 0.5635856,0.4330874 L 6.388202,6.0182918 6.5176347,5.85705 C 6.7025068,5.6266029 7.0436849,5.3890359 7.3495396,5.2777362 c 0.2172237,-0.079037 0.3714193,-0.0967 0.8744021,-0.09974 0.539606,-0.0032 0.6414427,0.00864 0.8750188,0.1020441 0.5379742,0.2150878 0.9493875,0.6902216 1.0950995,1.2647275 0.03999,0.15765 0.06439,0.2949327 0.05424,0.3050763 -0.01014,0.010159 -0.169531,-0.0016 -0.3541969,-0.025119 C 9.4467301,6.7666469 8.1380089,6.7672069 7.7777712,6.8255247 7.3430495,6.8960818 6.6985941,7.1172175 6.3703531,7.3085301 5.7666027,7.6604287 5.2889042,8.2684215 5.1291223,8.8881415 c -0.087197,0.338195 -0.092325,0.9976901 -0.010159,1.3052865 0.2349189,0.879438 1.0061966,1.588715 2.0510477,1.886271 0.4854934,0.138259 1.4036885,0.136491 1.9360158,-0.004 0.8033473,-0.211584 1.4420752,-0.651359 1.8608282,-1.281255 0.262291,-0.394537 0.52273,-1.0181125 0.633736,-1.5173252 0.04564,-0.2052563 0.101678,-0.3731935 0.124485,-0.3731935 0.08807,0 0.527025,0.3791852 0.697437,0.6024644 0.433107,0.5674583 0.600359,1.1950663 0.504744,1.8945753 -0.227117,1.66156 -1.744836,2.857642 -3.9549912,3.116817 -0.5629965,0.066 -1.7330918,0.02672 -2.1958549,-0.07367 C 5.70331,14.211202 4.8648709,13.770338 4.1762693,13.076885 3.4196071,12.314898 2.9178247,11.31276 2.6642457,10.057433 2.3465466,8.4846851 2.4834838,6.2709141 2.98743,4.8327612 3.4678276,3.4618138 4.2462426,2.5403051 5.3967368,1.9807339 c 0.805342,-0.3916994 1.5546117,-0.539925 2.7309015,-0.540349 1.4944645,-5.127e-4 2.5628547,0.2768855 3.4945107,0.9075356 0.784212,0.5308357 1.496739,1.5042783 1.918259,2.6205476 0.07046,0.1866008 0.141394,0.3551304 0.157616,0.3746016 0.02182,0.026239 1.270899,-0.2597901 1.345926,-0.3081642 C 15.079653,5.0118664 14.699903,4.03172 14.502893,3.6383591 13.414647,1.4654847 11.674838,0.29736159 9.1343014,0.03385248 8.8942985,0.00895744 8.5647406,-0.00157815 8.2173142,1.8977426e-4 Z M 8.6779741,8.1931439 c 0.4888725,-0.008 1.156867,0.048077 1.4595429,0.1279318 l 0.172019,0.045437 -0.02942,0.2124799 C 10.124186,9.7022378 9.7253866,10.365812 9.0493093,10.627122 8.6811011,10.769437 7.8139809,10.796379 7.4549427,10.676719 7.1177485,10.564309 6.9621896,10.477433 6.7844532,10.302207 6.5574739,10.078432 6.4915941,9.9164304 6.4922797,9.5837471 c 0.00176,-0.8505196 0.646564,-1.2989747 1.9887607,-1.3832109 0.06094,-0.004 0.1270942,-0.0064 0.1969329,-0.0072 z"
     />  
    </symbol>
    <symbol id="envelope" viewBox="0 0 16 16">
        <path d="M0 4a2 2 0 0 1 2-2h12a2 2 0 0 1 2 2v8a2 2 0 0 1-2 2H2a2 2 0 0 1-2-2V4Zm2-1a1 1 0 0 0-1 1v.217l7 4.2 7-4.2V4a1 1 0 0 0-1-1H2Zm13 2.383-4.708 2.825L15 11.105V5.383Zm-.034 6.876-5.64-3.471L8 9.583l-1.326-.795-5.64 3.47A1 1 0 0 0 2 13h12a1 1 0 0 0 .966-.741ZM1 11.105l4.708-2.897L1 5.383v5.722Z"/>
    </symbol>
    <symbol id="collection-play" fill="currentColor" class="bi bi-collection-play">
        <path d="M2 3a.5.5 0 0 0 .5.5h11a.5.5 0 0 0 0-1h-11A.5.5 0 0 0 2 3zm2-2a.5.5 0 0 0 .5.5h7a.5.5 0 0 0 0-1h-7A.5.5 0 0 0 4 1zm2.765 5.576A.5.5 0 0 0 6 7v5a.5.5 0 0 0 .765.424l4-2.5a.5.5 0 0 0 0-.848l-4-2.5z"/>
        <path d="M1.5 14.5A1.5 1.5 0 0 1 0 13V6a1.5 1.5 0 0 1 1.5-1.5h13A1.5 1.5 0 0 1 16 6v7a1.5 1.5 0 0 1-1.5 1.5h-13zm13-1a.5.5 0 0 0 .5-.5V6a.5.5 0 0 0-.5-.5h-13A.5.5 0 0 0 1 6v7a.5.5 0 0 0 .5.5h13z"/>
    </symbol>
    <symbol id="lightbulb" class="bi bi-lightbulb" fill="currentColor" >
        <path d="M2 6a6 6 0 1 1 10.174 4.31c-.203.196-.359.4-.453.619l-.762 1.769A.5.5 0 0 1 10.5 13a.5.5 0 0 1 0 1 .5.5 0 0 1 0 1l-.224.447a1 1 0 0 1-.894.553H6.618a1 1 0 0 1-.894-.553L5.5 15a.5.5 0 0 1 0-1 .5.5 0 0 1 0-1 .5.5 0 0 1-.46-.302l-.761-1.77a1.964 1.964 0 0 0-.453-.618A5.984 5.984 0 0 1 2 6zm6-5a5 5 0 0 0-3.479 8.592c.263.254.514.564.676.941L5.83 12h4.342l.632-1.467c.162-.377.413-.687.676-.941A5 5 0 0 0 8 1z"/>
    </symbol>
    <symbol class="bi bi-code" id="code">
        <path d="M5.854 4.854a.5.5 0 1 0-.708-.708l-3.5 3.5a.5.5 0 0 0 0 .708l3.5 3.5a.5.5 0 0 0 .708-.708L2.707 8l3.147-3.146zm4.292 0a.5.5 0 0 1 .708-.708l3.5 3.5a.5.5 0 0 1 0 .708l-3.5 3.5a.5.5 0 0 1-.708-.708L13.293 8l-3.147-3.146z"/>
    </symbol>
</svg>